<svg data-name="Layer 1" xmlns="http://www.w3.org/2000/svg" viewBox="0 0 2560 1600">
  <title>OutFlux</title>
  <path d="M26.89,802a219.5,219.5,0,0,1,17.72-87.63A225.4,225.4,0,0,1,164.77,594.2a225.54,225.54,0,0,1,175.26,0A225.4,225.4,0,0,1,460.19,714.36a225.54,225.54,0,0,1,0,175.26A225.4,225.4,0,0,1,340,1009.78a225.54,225.54,0,0,1-175.26,0A225.4,225.4,0,0,1,44.61,889.62,219.47,219.47,0,0,1,26.89,802Zm60.57,0a160.38,160.38,0,0,0,12.89,64.11,166.21,166.21,0,0,0,88,88,165.93,165.93,0,0,0,128.22,0,166.21,166.21,0,0,0,88-88,165.91,165.91,0,0,0,0-128.22,166.2,166.2,0,0,0-88-88,165.92,165.92,0,0,0-128.22,0,166.21,166.21,0,0,0-88,88A160.42,160.42,0,0,0,87.45,802ZM252.4,950.18a143.33,143.33,0,0,1-57.67-11.6,150.82,150.82,0,0,1-78.93-78.93,149.17,149.17,0,0,1,0-115.33,150.82,150.82,0,0,1,78.93-78.93,149.16,149.16,0,0,1,115.33,0A150.82,150.82,0,0,1,389,744.32a149.17,149.17,0,0,1,0,115.33,150.83,150.83,0,0,1-78.93,78.93A143.36,143.36,0,0,1,252.4,950.18ZM162.19,802a87.56,87.56,0,0,0,7.09,35.12,90.49,90.49,0,0,0,48,48,90.53,90.53,0,0,0,70.23,0,90.5,90.5,0,0,0,48-48,90.54,90.54,0,0,0,0-70.23,90.5,90.5,0,0,0-48-48,90.53,90.53,0,0,0-70.23,0,90.5,90.5,0,0,0-48,48A87.6,87.6,0,0,0,162.19,802Z"/>
  <path d="M689.25,1027.5q-40.59,0-73.45-10.31t-56.06-30.93q-23.2-20.61-35.76-52.19T511.41,860V586.79H648.65V854.18q0,22.56,9.34,34.47t31.25,11.92q21.9,0,31.25-11.92t9.34-34.47V586.79H867.72V860q0,42.53-12.56,74.1t-36.08,52.19q-23.53,20.63-56.38,30.93T689.25,1027.5Zm0-77.32q-96.65,0-96.65-94.72V638.33H575.84V855.47q0,54.12,29.32,82.8t84.08,28.67q54.76,0,84.41-28.67t29.64-82.8V638.33h-17.4V855.47Q785.89,950.18,689.25,950.18Z"/><path d="M967.59,699.54H888.33V586.79h300.26V699.54h-79.25v317H967.59ZM1046.84,965V653.79H1139V638.33h-201v15.46h92.14V965Z"/>
  <path d="M1211.13,586.79h253.22V699.54h-116v47.68h114v107h-114v162.37H1211.13ZM1292.32,965V808.43h122.42V793H1292.32V653.79h128.87V638.33H1275.57V965Z"/>
  <path d="M1499.79,586.79h143v317h118.56v112.76h-261.6ZM1725.3,965V949.54H1581V638.33h-16.75V965Z"/>
  <path d="M1959.83,1027.5q-40.59,0-73.45-10.31t-56.06-30.93q-23.2-20.61-35.76-52.19T1782,860V586.79h137.24V854.18q0,22.56,9.34,34.47t31.25,11.92q21.9,0,31.25-11.92t9.34-34.47V586.79h137.89V860q0,42.53-12.56,74.1t-36.08,52.19q-23.53,20.63-56.38,30.93T1959.83,1027.5Zm0-77.32q-96.65,0-96.65-94.72V638.33h-16.75V855.47q0,54.12,29.32,82.8t84.08,28.67q54.76,0,84.41-28.67t29.64-82.8V638.33h-17.4V855.47Q2056.48,950.18,1959.83,950.18Z"/>
  <path d="M2268.46,794.26l-114-207.47h150.13L2343.2,657l38.66-70.23h150.77l-114,207.47L2541,1016.55H2390.88l-47.68-85.7-47,85.7H2146Zm74.74,17.4L2427.61,965h19.33l-94.07-170.75,85.7-155.93h-19.33l-76,138.53-76-138.53h-19.33l85.7,155.93L2239.46,965h19.33Z"/>
</svg>
